<?xml version="1.0" encoding="utf-8"?>
<!-- Generator: Adobe Illustrator 21.0.0, SVG Export Plug-In . SVG Version: 6.00 Build 0)  -->
<svg version="1.1" id="Layer_1" xmlns="http://www.w3.org/2000/svg" xmlns:xlink="http://www.w3.org/1999/xlink" x="0px" y="0px"
	 viewBox="0 0 512 512" style="enable-background:new 0 0 512 512;" xml:space="preserve">
<g>
	<path d="M256,0C114.8,0,0,114.8,0,256s114.8,256,256,256c57.1,0,109.9-18.9,152.6-50.6l-2.3-1.4c-22.1-16.5-54.3-29.1-88.6-42.1
		c-86.1-33.5-179.8-71.1-179.8-181.6c0-103.2,94.5-157.5,226.3-157.5c19.1,0,38.6,1.2,57.7,3.7c2.8,0.4,3,0.4,5.7,0.8
		c7.3,1.6,14.6,3.2,21.7,4.9C402.3,34.3,333,0,256,0z M359.4,177.2c-87.4,0-83.7,57.9-83.7,59.3c0,47.3,54.1,68.7,117.2,93.7
		c30.5,12.2,62.2,24.6,91.6,41.3C502,336.9,512,297.5,512,256c0-3.5,0-7.1-0.4-10.6l-2-1.4C455.7,196.5,412.4,177.2,359.4,177.2z"/>
</g>
</svg>
